<svg xmlns="http://www.w3.org/2000/svg" viewBox="0 0 312.72 75.33"><defs><style>.cls-1{fill:#6714c9;}</style></defs><g id="Layer_2" data-name="Layer 2"><g id="Layer_1-2" data-name="Layer 1"><path class="cls-1" d="M292.28,29.05a30.67,30.67,0,0,0,20.31-22.4A5.52,5.52,0,0,0,307.16,0h0a5.59,5.59,0,0,0-5.42,4.43,19.52,19.52,0,0,1-19,15.07,19.51,19.51,0,0,1-19-15.07A5.6,5.6,0,0,0,258.33,0a5.52,5.52,0,0,0-5.43,6.65,30.63,30.63,0,0,0,20.31,22.4A30.6,30.6,0,0,0,252.9,51.44a5.52,5.52,0,0,0,5.43,6.65h0a5.6,5.6,0,0,0,5.42-4.43,19.51,19.51,0,0,1,38,0,5.59,5.59,0,0,0,5.42,4.43,5.52,5.52,0,0,0,5.43-6.65A30.64,30.64,0,0,0,292.28,29.05Z"/><path class="cls-1" d="M178,33.77v0h0a20.4,20.4,0,1,0-5.44,19.49,5,5,0,0,0-2.11-8.32,5,5,0,0,0-5,1.27,10.37,10.37,0,0,1-17.11-4.26h23A6.75,6.75,0,0,0,178,34,1.86,1.86,0,0,0,178,33.77Zm-12.56,0H149.12A10.38,10.38,0,0,1,166.2,32.1,1,1,0,0,1,165.43,33.75Z"/><path class="cls-1" d="M116.15,38.74A20.38,20.38,0,1,0,95.77,59.13,20.38,20.38,0,0,0,116.15,38.74ZM95.77,49.13a10.39,10.39,0,1,1,10.38-10.39A10.39,10.39,0,0,1,95.77,49.13Z"/><path class="cls-1" d="M20.38,0A20.36,20.36,0,0,0,.05,19.35H0V53.08a5,5,0,0,0,10,0V37.89A20.37,20.37,0,1,0,20.38,0Zm0,30.77A10.39,10.39,0,1,1,30.77,20.38,10.39,10.39,0,0,1,20.38,30.77Z"/><path class="cls-1" d="M202.51,28.36a10.33,10.33,0,0,1,7.32,3,5.06,5.06,0,0,0,5,1.3h0A5,5,0,0,0,217,24.41a20.38,20.38,0,1,0-.16,28.83,5,5,0,0,0-2.11-8.31h0a5.11,5.11,0,0,0-5,1.3,10.39,10.39,0,1,1-7.2-17.87Z"/><path class="cls-1" d="M71.63,19.19A20.37,20.37,0,0,0,54.7,21.7a5,5,0,0,0-9.22,2.66V38.71h0V53.09a5,5,0,0,0,10,0V38.74a10.39,10.39,0,0,1,13.45-9.92,4.93,4.93,0,0,0,5.65-2.34h0A5,5,0,0,0,71.63,19.19Z"/><path class="cls-1" d="M237.77,29.35a5,5,0,0,0,5-5h0a5,5,0,0,0-5-5h-4.35v-6.6a5,5,0,1,0-10,0v26a20.35,20.35,0,0,0,12.49,18.77A4.92,4.92,0,0,0,242.77,53a5,5,0,0,0-3-4.68,10.38,10.38,0,0,1-6.36-9.58h0V29.35Z"/><path class="cls-1" d="M127.38,19.36a5,5,0,0,0-5,5V55h0a10.39,10.39,0,0,1-13.45,9.92,4.93,4.93,0,0,0-5.65,2.34,5,5,0,0,0,3,7.29A20.39,20.39,0,0,0,132.38,55h0V24.36A5,5,0,0,0,127.38,19.36Z"/><circle class="cls-1" cx="127.38" cy="7.76" r="5.89"/></g></g></svg>